HIERARCHY
ROOT Hips
{
    OFFSET 0.000000 0.000000 0.000000
    CHANNELS 6 Xposition Yposition Zposition Zrotation Xrotation Yrotation
    JOINT Spine
    {
        OFFSET -0.000000 14.517291 0.000000
        CHANNELS 3 Zrotation Xrotation Yrotation
        JOINT Spine1
        {
            OFFSET -0.000000 37.558300 0.000000
            CHANNELS 3 Zrotation Xrotation Yrotation
            JOINT Neck
            {
                OFFSET -0.000000 37.404057 3.400369
                CHANNELS 3 Zrotation Xrotation Yrotation
                JOINT Head
                {
                    OFFSET -0.000000 24.785618 -3.540803
                    CHANNELS 3 Zrotation Xrotation Yrotation
                    End Site
                    {
                        OFFSET -0.000000 35.408028 0.000000
                    }
                }
            }
            JOINT LeftShoulder
            {
                OFFSET 6.992933 33.973492 -0.192664
                CHANNELS 3 Zrotation Xrotation Yrotation
                JOINT LeftArm
                {
                    OFFSET 21.527611 0.000000 0.000000
                    CHANNELS 3 Zrotation Xrotation Yrotation
                    JOINT LeftForeArm
                    {
                        OFFSET 56.353916 0.000000 0.000000
                        CHANNELS 3 Zrotation Xrotation Yrotation
                        JOINT LeftHand
                        {
                            OFFSET 47.774071 0.000000 0.000000
                            CHANNELS 3 Zrotation Xrotation Yrotation
                            End Site
                            {
                                OFFSET 26.556021 0.000000 0.000000
                            }
                        }
                    }
                }
            }
            JOINT RightShoulder
            {
                OFFSET -7.065357 33.973492 -0.192664
                CHANNELS 3 Zrotation Xrotation Yrotation
                JOINT RightArm
                {
                    OFFSET -21.527611 0.000000 0.000000
                    CHANNELS 3 Zrotation Xrotation Yrotation
                    JOINT RightForeArm
                    {
                        OFFSET -56.353916 0.000000 0.000000
                        CHANNELS 3 Zrotation Xrotation Yrotation
                        JOINT RightHand
                        {
                            OFFSET -47.774071 0.000000 0.000000
                            CHANNELS 3 Zrotation Xrotation Yrotation
                            End Site
                            {
                                OFFSET -26.556021 0.000000 0.000000
                            }
                        }
                    }
                }
            }
        }
    }
    JOINT LeftUpLeg
    {
        OFFSET 17.704014 0.000000 0.000000
        CHANNELS 3 Zrotation Xrotation Yrotation
        JOINT LeftLeg
        {
            OFFSET -0.000000 -81.181816 0.000000
            CHANNELS 3 Zrotation Xrotation Yrotation
            JOINT LeftFoot
            {
                OFFSET -0.000000 -62.821102 0.000000
                CHANNELS 3 Zrotation Xrotation Yrotation
                JOINT LeftToeBase
                {
                    OFFSET -0.000000 -11.507608 26.556021
                    CHANNELS 3 Zrotation Xrotation Yrotation
                    End Site
                    {
                        OFFSET -0.000000 0.000000 7.081605
                    }
                }
            }
        }
    }
    JOINT RightUpLeg
    {
        OFFSET -17.704014 0.000000 0.000000
        CHANNELS 3 Zrotation Xrotation Yrotation
        JOINT RightLeg
        {
            OFFSET -0.000000 -81.181816 0.000000
            CHANNELS 3 Zrotation Xrotation Yrotation
            JOINT RightFoot
            {
                OFFSET -0.000000 -62.821102 0.000000
                CHANNELS 3 Zrotation Xrotation Yrotation
                JOINT RightToeBase
                {
                    OFFSET -0.000000 -11.507608 26.556021
                    CHANNELS 3 Zrotation Xrotation Yrotation
                    End Site
                    {
                        OFFSET -0.000000 0.000000 7.081605
                    }
                }
            }
        }
    }
}
MOTION
Frames:    8
Frame Time:    0.008333
-5.005391    159.206665    -91.441910    -4.320387    -4.396312    44.453144    -1.366183    -3.400770    -5.517147    -7.354962    -0.423164    -1.854934    9.903871    0.341276    -14.040962    7.619587    2.288230    -15.154874    8.724020    8.091829    -19.324059    -35.593414    21.496244    -46.617996    -8.769781    -10.427528    -114.774849    4.129314    -23.623737    -1.057016    -14.459603    -6.643959    -14.020209    8.696721    -2.105751    17.453764    -20.068321    -36.586433    -7.003580    14.967642    -35.026451    23.737406    20.760685    4.979140    -3.348455    -8.157343    16.705172    -17.693470    -4.153679    -22.539326    42.617218    0.000000    0.000000    0.000000    -9.781256    -12.663447    -18.151476    3.756119    9.443154    -19.037449    6.802902    13.215936    -10.361619    0.000000    0.000000    0.000000    
-4.998079    159.208160    -91.445564    -4.317448    -4.390467    44.438690    -1.385888    -3.408096    -5.551061    -7.314501    -0.431263    -1.866375    9.967151    0.356589    -14.011801    7.516492    2.281140    -15.144109    8.730713    8.082742    -19.320166    -35.650124    21.454218    -46.567596    -8.845502    -10.289310    -114.777390    4.259673    -23.605824    -1.006831    -14.412535    -6.621436    -14.046031    8.739488    -2.006274    17.413551    -20.014877    -36.551582    -7.051115    14.824627    -35.025131    23.692520    20.744923    5.007904    -3.363082    -8.145883    16.655884    -17.674435    -4.170577    -22.535376    42.609039    0.000000    0.000000    0.000000    -9.782669    -12.659519    -18.143021    3.749243    9.425496    -19.015282    6.811575    13.225842    -10.374084    0.000000    0.000000    0.000000    
-4.993210    159.206177    -91.451180    -4.310047    -4.381688    44.412506    -1.416131    -3.407790    -5.579776    -7.255867    -0.448187    -1.876499    9.971781    0.374343    -13.996490    7.475708    2.297652    -15.133123    8.723408    8.075644    -19.304531    -35.677055    21.454159    -46.532398    -8.871206    -10.244022    -114.763794    4.255207    -23.598005    -1.011692    -14.387990    -6.603099    -14.061067    8.799891    -1.825951    17.361208    -20.020679    -36.540760    -7.081288    14.788404    -35.031219    23.637440    20.725697    5.040493    -3.355302    -8.140619    16.608877    -17.674171    -4.168253    -22.535219    42.627243    0.000000    0.000000    0.000000    -9.788977    -12.659874    -18.118938    3.749789    9.407478    -19.012320    6.804862    13.221700    -10.364323    0.000000    0.000000    0.000000    
-4.989252    159.207886    -91.455132    -4.306443    -4.375824    44.389324    -1.440547    -3.414483    -5.611565    -7.186756    -0.455726    -1.887079    9.942719    0.352786    -13.978280    7.448269    2.368617    -15.119605    8.705001    8.064456    -19.289013    -35.688477    21.462898    -46.486629    -8.900488    -10.208329    -114.774330    4.267813    -23.610029    -1.002287    -14.375429    -6.557583    -14.074795    8.877759    -1.609359    17.322855    -20.119497    -36.598633    -7.099736    14.751325    -35.106640    23.618235    20.708817    5.068000    -3.366794    -8.134404    16.563889    -17.634558    -4.176846    -22.520601    42.621368    0.000000    0.000000    0.000000    -9.790265    -12.659280    -18.117510    3.748688    9.385640    -19.008486    6.796008    13.241806    -10.361638    0.000000    0.000000    0.000000    
-4.982547    159.205124    -91.459274    -4.298177    -4.370322    44.366673    -1.491677    -3.430015    -5.654813    -7.073384    -0.438331    -1.899413    9.896375    0.364806    -13.951944    7.429088    2.374595    -15.086850    8.670726    8.045928    -19.255119    -35.700497    21.478064    -46.462154    -8.931959    -10.181723    -114.784973    4.333798    -23.633104    -0.960951    -14.368295    -6.520591    -14.064141    8.930321    -1.609926    17.298254    -20.109669    -36.626152    -7.089564    14.884115    -35.098022    23.722109    20.692337    5.098475    -3.403917    -8.142589    16.521769    -17.607557    -4.168560    -22.520023    42.646263    0.000000    0.000000    0.000000    -9.797888    -12.658605    -18.090899    3.748850    9.378463    -19.033911    6.782723    13.243969    -10.329676    0.000000    0.000000    0.000000    
-4.975691    159.202225    -91.463020    -4.280943    -4.369389    44.338924    -1.515587    -3.436398    -5.677133    -7.025287    -0.422683    -1.905411    9.878370    0.341686    -13.943338    7.418782    2.427574    -15.081891    8.681127    8.042095    -19.248642    -35.692974    21.487144    -46.447121    -8.925343    -10.194139    -114.782669    4.316990    -23.634674    -0.973356    -14.339093    -6.633798    -14.173139    8.953725    -1.320312    17.380550    -20.214123    -36.688675    -7.125738    14.935153    -35.162189    23.734564    20.668976    5.137537    -3.426850    -8.140563    16.486898    -17.582718    -4.154859    -22.505112    42.660866    0.000000    0.000000    0.000000    -9.805258    -12.654450    -18.105909    3.741249    9.378616    -19.011871    6.793940    13.238862    -10.325242    0.000000    0.000000    0.000000    
-4.977381    159.198807    -91.470947    -4.270568    -4.363974    44.310665    -1.538990    -3.438689    -5.697938    -6.973159    -0.416610    -1.911535    9.878117    0.333908    -13.923445    7.384270    2.437712    -15.066482    8.688603    8.032608    -19.232443    -35.661091    21.521059    -46.454224    -8.924931    -10.225655    -114.790672    4.336186    -23.665335    -0.964579    -14.299234    -6.594366    -14.182554    9.023533    -1.245354    17.360170    -20.309864    -36.744377    -7.090815    15.066892    -35.185436    23.826849    20.655991    5.165651    -3.462232    -8.158964    16.450994    -17.561852    -4.137425    -22.499750    42.698586    0.000000    0.000000    0.000000    -9.816508    -12.670989    -18.108603    3.757392    9.418314    -19.027264    6.753294    13.196809    -10.291162    0.000000    0.000000    0.000000    
-4.973479    159.194946    -91.476242    -4.258953    -4.363388    44.283401    -1.554226    -3.438462    -5.713748    -6.928281    -0.411202    -1.916176    9.875764    0.310854    -13.905632    7.356124    2.464167    -15.054564    8.705256    8.032900    -19.215858    -35.616844    21.568884    -46.481197    -8.883917    -10.306129    -114.796371    4.299969    -23.680851    -0.950068    -14.261210    -6.564209    -14.197828    9.084374    -1.177669    17.345377    -20.401731    -36.832268    -7.032367    15.054877    -35.276123    23.802338    20.636307    5.197452    -3.485891    -8.158870    16.422964    -17.515877    -4.133740    -22.498920    42.698547    0.000000    0.000000    0.000000    -9.816262    -12.665359    -18.091391    3.728487    9.384050    -18.984749    6.792339    13.255837    -10.295874    0.000000    0.000000    0.000000    
